<svg width="25" height="28" viewBox="0 0 25 28" fill="none" xmlns="http://www.w3.org/2000/svg">
<path fill-rule="evenodd" clip-rule="evenodd" d="M8.25 11.75H5.5C4.395 11.75 3.5 10.855 3.5 9.75V7C3.5 5.895 4.395 5 5.5 5H8.25C9.355 5 10.25 5.895 10.25 7V9.75C10.25 10.855 9.355 11.75 8.25 11.75Z" stroke="#0047BB" stroke-width="1.5" stroke-linecap="round" stroke-linejoin="round"/>
<path opacity="0.6" fill-rule="evenodd" clip-rule="evenodd" d="M19.5 11.75H16.75C15.645 11.75 14.75 10.855 14.75 9.75V7C14.75 5.895 15.645 5 16.75 5H19.5C20.605 5 21.5 5.895 21.5 7V9.75C21.5 10.855 20.605 11.75 19.5 11.75Z" stroke="#0047BB" stroke-width="1.5" stroke-linecap="round" stroke-linejoin="round"/>
<path opacity="0.6" fill-rule="evenodd" clip-rule="evenodd" d="M8.25 23H5.5C4.395 23 3.5 22.105 3.5 21V18.25C3.5 17.145 4.395 16.25 5.5 16.25H8.25C9.355 16.25 10.25 17.145 10.25 18.25V21C10.25 22.105 9.355 23 8.25 23Z" stroke="#0047BB" stroke-width="1.5" stroke-linecap="round" stroke-linejoin="round"/>
<path opacity="0.6" fill-rule="evenodd" clip-rule="evenodd" d="M19.5 23H16.75C15.645 23 14.75 22.105 14.75 21V18.25C14.75 17.145 15.645 16.25 16.75 16.25H19.5C20.605 16.25 21.5 17.145 21.5 18.25V21C21.5 22.105 20.605 23 19.5 23Z" stroke="#0047BB" stroke-width="1.5" stroke-linecap="round" stroke-linejoin="round"/>
</svg>
