<svg width="46" height="46" viewBox="0 0 46 46" fill="none" xmlns="http://www.w3.org/2000/svg">
<path d="M23 46C35.7025 46 46 35.7025 46 23C46 10.2975 35.7025 0 23 0C10.2975 0 0 10.2975 0 23C0 35.7025 10.2975 46 23 46Z" fill="#0047BB"/>
<path d="M23.0033 33.7429C22.0639 33.7438 21.1335 33.5596 20.2654 33.2007C19.3973 32.8418 18.6084 32.3152 17.9439 31.6512C17.2795 30.9872 16.7524 30.1986 16.393 29.3307C16.0335 28.4628 15.8486 27.5326 15.849 26.5932C15.849 24.0441 17.1764 21.3124 19.5861 18.9046C20.0507 18.44 20.5594 18.0037 21.0516 17.5818L21.0601 17.5746C19.4609 16.6434 17.7516 15.9158 15.9719 15.4086C14.1287 14.8804 12.23 14.5696 10.3145 14.4827V29.8993C10.3257 30.0524 10.3052 30.2062 10.2542 30.3511C10.2033 30.4959 10.123 30.6287 10.0185 30.7412C9.91393 30.8536 9.78732 30.9433 9.64655 31.0047C9.50578 31.066 9.35388 31.0976 9.20033 31.0976C9.04678 31.0976 8.89488 31.066 8.75412 31.0047C8.61335 30.9433 8.48673 30.8536 8.38218 30.7412C8.27763 30.6287 8.19738 30.4959 8.14644 30.3511C8.09551 30.2062 8.07498 30.0524 8.08615 29.8993V13.3715C8.08615 13.0752 8.20385 12.791 8.41335 12.5815C8.62286 12.372 8.90701 12.2543 9.20329 12.2543H9.23615C14.1047 12.2218 18.8812 13.5808 23.0033 16.1716C27.1364 13.5782 31.9241 12.2192 36.8033 12.2543C37.0947 12.2676 37.3705 12.3897 37.5761 12.5966C37.7818 12.8035 37.9023 13.08 37.9139 13.3715V29.8993C37.9257 30.0527 37.9056 30.207 37.855 30.3523C37.8044 30.4977 37.7242 30.631 37.6197 30.7439C37.5151 30.8569 37.3883 30.947 37.2472 31.0086C37.1062 31.0702 36.9539 31.102 36.8 31.102C36.6461 31.102 36.4938 31.0702 36.3528 31.0086C36.2117 30.947 36.0849 30.8569 35.9804 30.7439C35.8758 30.631 35.7957 30.4977 35.745 30.3523C35.6944 30.207 35.6744 30.0527 35.6861 29.8993V14.4827C33.7714 14.5698 31.8733 14.8805 30.0308 15.4086C28.2507 15.9156 26.5409 16.643 24.9412 17.5739L24.9497 17.5811C25.4413 18.003 25.9499 18.4387 26.4145 18.9033C28.8249 21.3137 30.1517 24.0448 30.1517 26.5919C30.1522 27.5309 29.9677 28.4608 29.6087 29.3285C29.2496 30.1961 28.7231 30.9845 28.0593 31.6486C27.3954 32.3127 26.6072 32.8395 25.7397 33.1989C24.8721 33.5582 23.9423 33.7431 23.0033 33.7429ZM23.0033 18.8258C22.3404 19.3167 21.7159 19.8573 21.135 20.443C19.1419 22.4716 18.0465 24.654 18.0465 26.5886C18.0465 27.9039 18.569 29.1654 19.4991 30.0954C20.4291 31.0255 21.6906 31.548 23.0059 31.548C24.3212 31.548 25.5827 31.0255 26.5128 30.0954C27.4429 29.1654 27.9654 27.9039 27.9654 26.5886C27.9417 25.5196 27.6661 24.4713 27.161 23.5289C26.5612 22.3887 25.7902 21.347 24.8748 20.4404C24.2926 19.8574 23.6669 19.3194 23.0033 18.831V18.8258Z" fill="white"/>
</svg>
