<svg width="24" height="24" viewBox="0 0 24 24" fill="none" xmlns="http://www.w3.org/2000/svg">
<path fill-rule="evenodd" clip-rule="evenodd" d="M12 18.0001L7.91559 20.1474C7.42675 20.4044 6.82212 20.2164 6.56512 19.7276C6.46278 19.5329 6.42746 19.3099 6.46464 19.0932L7.24469 14.5452L3.94036 11.3242C3.54487 10.9387 3.53678 10.3056 3.92228 9.91013C4.07579 9.75265 4.27693 9.65016 4.49457 9.61853L9.06105 8.95499L11.1032 4.81706C11.3477 4.3218 11.9473 4.11846 12.4425 4.36289C12.6397 4.46022 12.7994 4.61984 12.8967 4.81706L14.9389 8.95499L19.5054 9.61853C20.0519 9.69795 20.4306 10.2054 20.3512 10.7519C20.3196 10.9696 20.2171 11.1707 20.0596 11.3242L16.7553 14.5452L17.5353 19.0932C17.6287 19.6375 17.2631 20.1545 16.7187 20.2478C16.502 20.285 16.279 20.2497 16.0844 20.1474L12 18.0001Z" stroke="#0047BB" stroke-width="1.5"/>
</svg>
